/* XPM */
static char *_9272ce90c114bb7ed4cb4d4512d386au74g3VlXalaSAR6l[] = {
/* columns rows colors chars-per-pixel */
"50 50 256 2 ",
"   c #3D1300",
".  c #461C01",
"X  c #4B1D02",
"o  c #491908",
"O  c #521C00",
"+  c #571902",
"@  c #641E00",
"#  c #4D2304",
"$  c #4F200C",
"%  c #522502",
"&  c #5C2C03",
"*  c #5A2C0C",
"=  c #572806",
"-  c #5B2D14",
";  c #592917",
":  c #593305",
">  c #622401",
",  c #6B2500",
"<  c #682B06",
"1  c #7A2B00",
"2  c #66330C",
"3  c #693507",
"4  c #7A3402",
"5  c #773706",
"6  c #642D13",
"7  c #652F1A",
"8  c #6B2816",
"9  c #653413",
"0  c #6B3415",
"q  c #6B331C",
"w  c #64391B",
"e  c #6C3B1B",
"r  c #673917",
"t  c #743C1B",
"y  c #763817",
"u  c #772D19",
"i  c #6A2F23",
"p  c #6C3423",
"a  c #6A3A25",
"s  c #763A25",
"d  c #7A430B",
"f  c #6C4318",
"g  c #774219",
"h  c #795519",
"j  c #7D7D1D",
"k  c #794425",
"l  c #7A562C",
"z  c #706A2F",
"x  c #5D5B34",
"c  c #715D42",
"v  c #757152",
"b  c #757C68",
"n  c #797C77",
"m  c #6E7B69",
"M  c #5C685C",
"N  c #823302",
"B  c #873B08",
"V  c #883918",
"C  c #933B1B",
"Z  c #812B0A",
"A  c #973B26",
"S  c #874105",
"D  c #944809",
"F  c #83451A",
"G  c #974717",
"H  c #955A1B",
"J  c #8F5805",
"K  c #A3481B",
"L  c #A65A17",
"P  c #A7580D",
"I  c #956B17",
"U  c #AD6D07",
"Y  c #A9661C",
"T  c #AC7317",
"R  c #B67214",
"E  c #974726",
"W  c #8B522F",
"Q  c #A24A23",
"!  c #A84B2A",
"~  c #A55428",
"^  c #A54A38",
"/  c #A95432",
"(  c #B15434",
")  c #996D28",
"_  c #886635",
"`  c #907333",
"'  c #AA6A24",
"]  c #B56827",
"[  c #B77924",
"{  c #AA6835",
"}  c #B7763A",
"|  c #B27036",
" . c #CB792C",
".. c #C8791C",
"X. c #936A45",
"o. c #997C4B",
"O. c #997957",
"+. c #86714F",
"@. c #AD7A48",
"#. c #B87B43",
"$. c #A97950",
"%. c #837967",
"&. c #8C7F72",
"*. c #A47F64",
"=. c #9D5040",
"-. c #C57D46",
";. c #7A865A",
":. c #7D8A7C",
">. c #798677",
",. c #7B917D",
"<. c #768763",
"1. c #B58A15",
"2. c #B9853C",
"3. c #B08B33",
"4. c #AB9F21",
"5. c #D99C0C",
"6. c #D28917",
"7. c #CE8F10",
"8. c #DDB806",
"9. c #D4A606",
"0. c #F8BC13",
"q. c #EBB70E",
"w. c #D28924",
"e. c #C99626",
"r. c #D89328",
"t. c #C98636",
"y. c #D59338",
"u. c #D08733",
"i. c #DEA425",
"p. c #D1AE33",
"a. c #E7B826",
"s. c #EDB331",
"d. c #E39C0C",
"f. c #F9CA09",
"g. c #FBD20E",
"h. c #F8C819",
"j. c #F9D717",
"k. c #EBCB15",
"l. c #FFE31B",
"z. c #DACB30",
"x. c #E8CA28",
"c. c #FACA2A",
"v. c #FCDE23",
"b. c #F9D726",
"n. c #F9D737",
"m. c #EDD138",
"M. c #FDE329",
"N. c #F9E637",
"B. c #ECE139",
"V. c #848547",
"C. c #888857",
"Z. c #969257",
"A. c #B88548",
"S. c #A78657",
"D. c #B59252",
"F. c #B8A959",
"G. c #B6B24E",
"H. c #88866B",
"J. c #978469",
"K. c #848673",
"L. c #85867B",
"P. c #8C857B",
"I. c #84897B",
"U. c #8C8B7D",
"Y. c #898575",
"T. c #988A77",
"R. c #85957A",
"E. c #96947D",
"W. c #9F9265",
"Q. c #A68866",
"!. c #AD926B",
"~. c #A18C74",
"^. c #A89476",
"/. c #B59B77",
"(. c #B48D62",
"). c #B4AD6C",
"_. c #96A059",
"`. c #C48645",
"'. c #D59958",
"]. c #CC914C",
"[. c #D2AF4E",
"{. c #ECB64D",
"}. c #D8AD70",
"|. c #E2AF60",
" X c #B8C57F",
".X c #D0C350",
"XX c #E6C845",
"oX c #FCC643",
"OX c #E5D547",
"+X c #F9C456",
"@X c #FDDB5B",
"#X c #FCDB57",
"$X c #F1D44B",
"%X c #FCE749",
"&X c #FFEB54",
"*X c #FAEA56",
"=X c #F6ED5E",
"-X c #FBD87B",
";X c #EDD26B",
":X c #FFE868",
">X c #FEF56C",
",X c #FDE877",
"<X c #FDF478",
"1X c #D3D368",
"2X c #7D8D85",
"3X c #7C868B",
"4X c #758C8B",
"5X c #7D8C8D",
"6X c #788787",
"7X c #7C9184",
"8X c #7B918C",
"9X c #79948C",
"0X c #758E92",
"qX c #7C8C93",
"wX c #7C8B9A",
"eX c #7A8795",
"rX c #7B9293",
"tX c #799196",
"yX c #838B85",
"uX c #8B8C84",
"iX c #84868C",
"pX c #818A8D",
"aX c #828B8C",
"sX c #8A8B8B",
"dX c #858487",
"fX c #928B83",
"gX c #86938B",
"hX c #979785",
"jX c #848693",
"kX c #828B92",
"lX c #838A9B",
"zX c #888B95",
"xX c #839293",
"cX c #8C9D9C",
"vX c #869697",
"bX c #929B96",
"nX c #989A98",
"mX c #928D91",
"MX c #A3948E",
"NX c #88A294",
"BX c #93A399",
"VX c #ADB28F",
"CX c #8C9AA1",
"ZX c #A19CA0",
"AX c #97A4A3",
"SX c #DAB88B",
"DX c #B3C08B",
"FX c #D0CE8B",
"GX c #FDE787",
"HX c #FDF383",
"JX c #FFF88A",
"KX c #F6EE98",
"LX c #D7CAA1",
"PX c #FFF9A9",
"IX c #EAF0B4",
"UX c #FFDD8E",
/* pixels */
"0X0X2X2XyXiXiXiXyXyXaXpXqXqX5X2XyXyXaXaXaXaX5XaXaX5X2X8X5X5X5X5X5X5X5X5X5X5X5X5X5X5X5X5X5X5X5X5X5X5X",
"qX5X2X2XyXiXpXpXyXyXaX5XqXqX5X2X2X2X5X5X5X5X5X5X3X2X3X5X5X5X5X5X5X5X5X5X5X5X5X5X5X5X5X5X5X5X5X5X5X5X",
"0X5X2X2XiXpXkXkX5X5X5XqXqXqX5X5X5X5X5XqXqXqXqX5XkXaXkXkXkXkXqXqX5X5X5X5X5X5X5X5X5X5X5X5X5X5X5X5X5X5X",
"qX5X2X2X5X5XqXqX5X5X5X0XqXqX5X5X5XqXqXqXqXqXqXqXqXqXpXpXqX5XqX5X5X5X5X5X5X5X5X5X5X5X5X5X5X5X5X5X5X5X",
"pXiX2X2X5XqXqX0X5X5X5X0XqXqX5X5X5X5X5XqXqXqXqX5XpX5XiX5XpXpXaXaX5X5X5X5X5X5X5X5X5X5X5X5X5X5X5X5X5X5X",
"pXiX5X5X5X0XqX0X0X8X5XqXqX5XpXaX5X5X5X5X5X5XaXaXaXaXiXiXiXyXiXaX5X5X5X5X5X5X5X5X5X5X5X5X5X5X5X5X5X5X",
"pXpXiX5X5X0X0X5X5X5X2XyXiXuXuXyX5X5X5X5X2X2X5X5X2X2X2X2XyX2X:.2X5X5X5X5X5X5X5X5X5X5X5X5X5X5X5X5X5X5X",
"pXpX5X5X0X5X5X5XyXyXI.U.P.P.P.P.L.I.I.K.K.K.K.K.I.U.U.E.E.E.E.hXyX5X5X5X5X5X5X5X5X5X5X5X5X5X5X5X5X5X",
"5XkX5XkX5X6XgX2XuXK.T.J.T.~.^.^.^.^.^././././././.!.!.Q.S.o.o./.L.5X5X5X5X5X5X5X5X5X5X5X5X5X5X5X5X5X",
"3XkXqXqX5XgXyXI.P.~.J.Q./.Q.Q.O.O.X._ l l k f r 9 = % = #   3 !.L.5X5X5X5X5X5X5X5X5X5X5X5X5X5X5X5X5X",
"5XqXqX3X5XuXb T.J.J.X.(.$.X X # # . . . # % % # X X X # % . f /.L.5X5X5X5X5X5X5X5X5X5X5X5X5X5X5X5X5X",
"5X3XqX5XiXL.H.~.*.e % @.@.X & = - - - - * = * - - - o . % % f !.L.5X5X5X5X5X5X5X5X5X5X5X5X5X5X5X5X5X",
"8X6XqXpXsXY.~.O.= O 3 `.@.O & - 7 7 7 6 6 9 w a a ; o $ * X r /.L.5X5X5X5X5X5X5X5X5X5X5X5X5X5X5X5X5X",
"8X5XkX3XuXT.J.w % < 5 } } % & e 7 7 7 0 e e e e p ; o - w % f /.L.5X5X5X5X5X5X5X5X5X5X5X5X5X5X5X5X5X",
"8X5XkXiXP.T.+.X 2 5 4 #.A.% % - 6 7 0 t g g t 0 a - X # = % f !.L.5X5X5X5X5X5X5X5X5X5X5X5X5X5X5X5X5X",
"5X5XeXzXuXT.l % y V 4 `.} X * * 7 q t g g t g k k - * * = # f !.I.5XpX5X5X5X5X5X5X5X5X5X5X5X5XaX5X5X",
"jXjXlXeXdXMXf & k F 5 2.| O e q s F y y k k s s s p $ * h : h !.U.5XkXqXrX4X0X0XqXkXqX5X5X5XiXiXaX5X",
"iXpXqXqXdXT.l O y t 5 `.#.O < q t y g g y k t 0 e 2 . ) GX) : Q.K.aXzX3X6X4XrX0XqXpXiX5X5X5XaXaXpX5X",
"uXyX2X7XI.T.X.O p s y `.{ O t k k y y g 5 d d ) I ].p.p.&XOX[.).H.:.iXzXvXxX5X5XaXuXyXyX5X0X0XqX5X5X",
"U.yX2X7XI.Y.*.0 8 u 5 -.@.> e 9 0 y d 3 J ].-XHXJX>XB.x.N.%XHXPXIXVXH.K.:.yX6XaXpXiXuX2X8XrX5X5X5X5X",
"uXyX8X4XaXU.Q.X.+ , 4 -.#.> r a a e : J $Xn.n.n.n.%XN.b.x.m.,XJXPXKX)._.H.gX7X2XqXwXeXqXrXrX8X2X5X5X",
"iX5XrX4XqXdXT.*.g + , `.{ > r r * 9 h [.%Xk.g.k.b.n.M.v.8.n.>X<XHXJX<X1X_.;.;.R.zXlXlXqX0X8X2X2X5X5X",
"iX5XrX0X5XdXfX~.S.3 > -.{ @ < % h }.PX,Xn.j.j.g.j.M.M.j.q.b.N.&X:X$Xz.m.,XFXG.V.H.fXsXsXpX5XiXiXaX5X",
"pX5X4XrX4X3XmX&.J.S.W #.{ + < A.GX,XGXHXn.g.g.g.b.M.l.l.8.h.N.%X>X#Xx.a.#X,X,X;X` O.J.T.uXiXiXaXaX5X",
"lXwX0X0X5XkXjXjXfXJ.!.S.2.[ y.+X{.i.:X@Xh.q.j.g.k.v.l.l.8.k.%X&X>X:Xn.c.s.m.{.{.t.2.D.D.T.dXaX5X5X5X",
"wXqX5X8X5XqXlXlX3XuXJ.o.].y.y.s.i.r.e.R q.h.0.c.c.k.M.v.9.c.&X:X{.s.s.7.7.6.6...u.Y [ F.H.iXaX6X5X5X",
"5X2X,.,.2X5XwXwXlXaXC.S.} L P }  .t.`.T i.q.d.5.5.9.b.c.7.i.a.p.e.e.7.6.r...Y L C 1 H D.Y.kX8X8X5X5X",
"2X2X,.,.2X5XqXtX0X>.).KX|.S @ 1 5 5 W H U R w.r.e.e.5.5.6.r.r.e.3.[ 6.6.w.Y B C V V @.S.fXkX4X4X5X5X",
"pX5X2X2X5XqX0X5X8X<.1XHX+XJ , < 3 < 2 3 5 5 S G ' [ 6.6. .] P L D 4 y.D ' ~ F ^ y k Q.O.L.5XqXqXqX5X",
"kXpX2X2X5XqX5X5X2X;..X*X#XT > 0 9 2 r 9 0 9 < < , D  .P D G K K G 1 y.P | / F W y W SXLXhX2XkXqXqX5X",
"kXkX2X2X5XqX5X5XgXC.[.$X#X1.& r 9 9 e a p a s 0 4 ] ].S C / ! K ! Q ]  .| / E y , Y UXPXVXH.uXpXpX5X",
"kXkX2X2X5XqX5X5XyXv .X$XoXe.3 * e e q p i i i 6 5 `.-.N E E Q / / ! L L G E ^ C N [ ,XGXFXH.yX5X5X5X",
"eX5X2X2X5X5XrX6XR. X;Xm.s.y.d = q 7 p p q p q 2 d '.{ B G Q ~ / ! ! ~ ~ ~ / ^ C N U :X;XV.b 6X0X5X5X",
"qX5X4X2X5XiX2X>.DXPX<X#X@X[.d > s p q q q 0 0 < J '.E V G K ! ! ( / Q ~ ~ E ^ A N T +XF.x M 4X8X5X5X",
"0X0X5X6XuXuXH.W.KXJX:X:XJX-XH & 0 2 9 r e e 0 < Y ].V A Q K ! ! ! ! Q ~ E C Z 1 B | A.o.H.gX7X2X5X5X",
"0X0XrX3XuXU.J.F.;Xp.%X&X:X;XH > y 0 r r w w q < ' -.V A ! Q ! ( ! K B 1 1 B ~ -.'.}.O.v L.iX>.gX5X5X",
"qXqXkX5XaXI.b W.;Xz.j.j.N.#XI + u q 0 e a a 7 < } } B E =.^ V B N N B P u.'.'.'.S.+.c M n 5XzXiXpX5X",
"kX3XpX5X8X:.b C.3.4.z.B.z.p.2.E y < & & - w p 0 | ] B B 5 5 4 G L } '.|.'.2.) _ z %.uXcXcXxXjXkX5X5X",
"yX2X5XkXqX4X>.>.v v V.C.z h A.'.].} H d 3 < > > -.L , S P U [ t.{.].A.X.c v %.T.hXZXbXxXAXcX4XqX5X5X",
"2X2X5XxX0X4XvXcXBXcXmXdXP.+._ _ | #.].].A.{ W F ' T U s.n.s.oX+X1.J l v P.nXnXnXnXbXBXcXCXvX4X5X5X5X",
"qXqX0X4X8X8X8X8XcXcXZXZXZXhXU.Y.v c l _ { D.}.-X-X@Xn.M.h.0.a.#X:X[.+.%.nXAXbXbXcXcXvXrXqXqXkXpXpX5X",
"qXqX0X5X5X5X5X5X5XqXvXnXnXnXBXcXbXhX+._ 2.-XPXHXJX>Xv.f.f.0.0.n.*XHXLXnXgXcXcXvXrX5X8X5XqXwXkXaXpX5X",
"9X4X5X5XiXiXjXkXtXtXvXbXnXnXNXNXBXE.F.XX#X#X:X<X>X=Xn.c.c.h.k.M.N.=XFXBXNXNXrX3XiXiXuXaXkXlXpXaXaX5X",
"7X7X5XiXiXiXjXjXqXrXkXvXbXbXcXNXcXhXF..XXXXX;XHX1X4.1.1.p.{.m.OX*XG.C.>.9X9X4XqXaXsXuXsXzXkXaXyXaX5X",
"yXaXaXpXpXpXpXpX3X3XiXaXsXgXgXxXvX3Xv z ` F.)._.z z j ` _ +.Z.Z.V.v v >.gX2X3XjXjXjXyXyXkXkXaXaXpX5X",
"aXpXaX5X5X5X5X5XaXaXiXiXiX5X3X3X0X6XdXY.%.%.;.;.<.VXIXLXP.n :.m K.I.aX5X6X5XjXjXjXkX5X5X5XqXjXjXpX5X",
"qXqXqX5X5X5X0XqX5XiX2X2X8XqXlXlXtX4X6XuXuXuXR.,.:.hXhXH.&.sXgX>.:.2XqXwXlXlXpX6XaXaXrXtX0X0X5X5X5X5X",
"qXqXqX5X5X5X0XqXkXaX2X2X4X5XjXlX4X9X8X5X6X5X8X2X8X2X>.>.mX3X2X7X8X5XwXwXeXqXaXyX2X2X5X0XtXtX0X5X5X5X",
"qX5X5X5X5X5XqXqXpXpX5X5X5X5XkXkX5X5X5X5X5X5X5X5X5XaXaXaXpXpX5X5X5X5XqXqXqXqXpXaX5X5X5X5X5X5X5X5X5X5X",
"5X5X5X5X5X5X5X5X5X5X5X5X5X5X5X5X5X5X5X5X5X5X5X5X5X5X5X5X5X5X5X5X5X5X5X5X5X5X5X5X5X5X5X5X5X5X5X5X5X5X"
};
