/* XPM */
static char *f39fc4d7c3914e4cf8513b15aa9ee9d0o0xrphc7RPBnEten[] = {
/* columns rows colors chars-per-pixel */
"50 50 236 2 ",
"   c #0B0B04",
".  c #110E0C",
"X  c #0F110A",
"o  c #14120D",
"O  c #101207",
"+  c #0C0A15",
"@  c #120E15",
"#  c #0D1114",
"$  c #0E111A",
"%  c #121314",
"&  c #13121A",
"*  c #17191A",
"=  c #2B281C",
"-  c #322A1D",
";  c #151722",
":  c #2C2B28",
">  c #352E2B",
",  c #362C27",
"<  c #35312E",
"1  c #38322B",
"2  c #3B2F35",
"3  c #353233",
"4  c #3C3534",
"5  c #3D3834",
"6  c #3C3A3A",
"7  c #383639",
"8  c #492F19",
"9  c #4A3525",
"0  c #44352C",
"q  c #4D3A2C",
"w  c #493629",
"e  c #523C2B",
"r  c #563927",
"t  c #423532",
"y  c #4A3634",
"u  c #433934",
"i  c #4C3B34",
"p  c #44363A",
"a  c #433B3B",
"s  c #4B3C3A",
"d  c #4B373B",
"f  c #523E31",
"g  c #4A2F24",
"h  c #5A401B",
"j  c #5E4225",
"k  c #4D4434",
"l  c #534236",
"z  c #554337",
"x  c #65472A",
"c  c #6A4C36",
"v  c #684A36",
"b  c #6D5035",
"n  c #74543A",
"m  c #7A5B3C",
"M  c #6B512C",
"N  c #3F3A40",
"B  c #463B44",
"V  c #7D5C42",
"C  c #7F6745",
"Z  c #825F3F",
"A  c #9F6A2E",
"S  c #87643C",
"D  c #AA6B2B",
"F  c #AC763F",
"G  c #AE783C",
"H  c #AF7336",
"J  c #875B4B",
"K  c #846746",
"L  c #966B49",
"P  c #996F5E",
"I  c #947254",
"U  c #A87D47",
"Y  c #B37C44",
"T  c #BA794A",
"R  c #A87759",
"E  c #B87658",
"W  c #AE6D4F",
"Q  c #9E796C",
"!  c #9A7669",
"~  c #A87765",
"^  c #B37765",
"/  c #A17B73",
"(  c #B87F74",
")  c #B6834C",
"_  c #B98656",
"`  c #A38058",
"'  c #9E867C",
"]  c #AB8963",
"[  c #B88967",
"{  c #B99568",
"}  c #A78377",
"|  c #BD9579",
" . c #B18C7A",
".. c #BEA16E",
"X. c #C78A59",
"o. c #CD9256",
"O. c #CD935A",
"+. c #CA9959",
"@. c #D6955A",
"#. c #E0955E",
"$. c #D7A45C",
"%. c #CDA05C",
"&. c #E1A95E",
"*. c #C88C62",
"=. c #CA9869",
"-. c #D59662",
";. c #D59962",
":. c #DB9B64",
">. c #DC9C69",
",. c #D7956B",
"<. c #C99777",
"1. c #D69A78",
"2. c #D18A60",
"3. c #E39A66",
"4. c #E49E74",
"5. c #CDA564",
"6. c #DDA96D",
"7. c #D7A668",
"8. c #CAAA75",
"9. c #C9A97A",
"0. c #D5AC73",
"q. c #D4A97D",
"w. c #DBAB7C",
"e. c #D8A574",
"r. c #CBB07D",
"t. c #DDB47A",
"y. c #E2AD6B",
"u. c #E2A765",
"i. c #E5B167",
"p. c #E5A974",
"a. c #E9B27A",
"s. c #ECBC7D",
"d. c #E5B577",
"f. c #F5BB79",
"g. c #F0B86E",
"h. c #ECC17D",
"j. c #F4C47D",
"k. c #FCC47C",
"l. c #FFCA7E",
"z. c #A88887",
"x. c #B38E86",
"c. c #B89685",
"v. c #BBA09D",
"b. c #C89B85",
"n. c #D69F84",
"m. c #C8A487",
"M. c #D7AA83",
"N. c #DCB787",
"B. c #CCAE9A",
"V. c #C8A895",
"C. c #D2AA97",
"Z. c #C8B29B",
"A. c #D2B49E",
"S. c #D3B892",
"D. c #EABD84",
"F. c #E4BC8A",
"G. c #E5B785",
"H. c #F5BD84",
"J. c #EBBD93",
"K. c #F2BF90",
"L. c #C9B5A5",
"P. c #DEC38D",
"I. c #DEC694",
"U. c #EEC485",
"Y. c #E5C38E",
"T. c #F3C385",
"R. c #FCC483",
"E. c #FECA84",
"W. c #F4C38D",
"Q. c #FBC58B",
"!. c #F3CA8B",
"~. c #FECB8B",
"^. c #F3CA83",
"/. c #FED48C",
"(. c #E5CB93",
"). c #E4CC99",
"_. c #EAC899",
"`. c #F4CA93",
"'. c #FDCC93",
"]. c #F7C899",
"[. c #EED395",
"{. c #FED593",
"}. c #FED49B",
"|. c #FBD694",
" X c #DDC9AE",
".X c #F3CAA5",
"XX c #FAD5A8",
"oX c #EDCCB8",
"OX c #EAD2BB",
"+X c #F8DAB9",
"@X c #EDCFAC",
"#X c #FCE4BC",
"$X c #FDE9BD",
"%X c #F7E4BB",
"&X c #EEE0B9",
"*X c #EBD0CB",
"=X c #F9DCC4",
"-X c #F6DAC6",
";X c #F2DFD4",
":X c #EACDC6",
">X c #FDE5C4",
",X c #FFEBC3",
"<X c #FFECCD",
"1X c #FFE5C8",
"2X c #FEF1C9",
"3X c #FFEDD3",
"4X c #FBE9D9",
"5X c #FFF3DB",
"6X c #FFF9DF",
"7X c #F3DFEB",
"8X c #FFECE5",
"9X c #FFEEEB",
"0X c #F4EBE4",
"qX c #FFF4E3",
"wX c #FFFBE4",
"eX c #FFF4EB",
"rX c #FFFBED",
"tX c #F4FCED",
"yX c #FEF6F2",
"uX c #F6FAF2",
"iX c #FEFDF4",
"pX c #F4FEFD",
"aX c #FBFFFF",
"sX c #F9FFFE",
"dX c #FFFFFD",
"fX c #FEFFFD",
"gX c #FCFFFF",
"hX c #FDFEFF",
"jX c #FFFEFF",
"kX c #FEFFFF",
"lX c white",
"zX c #FEFEFF",
"xX c #FEFDFE",
"cX c #FEFEFD",
"vX c #FAF6FD",
"bX c #EFFEFB",
/* pixels */
"fXfXfXfXfXfXfXfXfXfXfXfXaXaXaXaXfXxXfXfXfXaXfXfXfXfXaXaXaXfXfXfXaXaXfXfXdXaXpXpXpXaXfXdXdXfXfXfXfXfX",
"fXfXfXfXfXfXfXfXfXfXfXfXfXdXdXfXfXxXfXfXfXfXuXuXuXfXfXaXfXfXfXfXvXaXdXdXdXuXbXsXsXaXfXdXdXfXfXfXfXfX",
"fXfXfXfXfXfXfXfXfXxXdXdXdXiXiXiXiXdXdXdXdXdXdXiXiXuXuXdXdXdXdXdXfXfXiXiXiXiXpXaXsXaXdXdXdXfXfXfXfXfX",
"fXfXfXfXfXfXfXfXfXdXdXiXiXrXrXrXrXiXiXiXiXiXdXiXiXiXiXiXiXiXiXiXiXiXrXrXrXiXiXfXaXaXdXdXdXfXfXfXfXfX",
"fXfXfXfXfXfXfXfXiXiXeX4XqXqXqXqXqXiXiXiXdXxXdXxXfXdXdXiXiXiXrXrXrXrXqX5X4XqX8XdXfXfXdXdXdXfXfXfXfXfX",
"fXfXfXfXfXfXfXfXiXiX;XV.C.m.b.| OX5X5XqXeX8XeX8X9X9XqXqX5X5X5X5X6X Xm.M.n.C.V.:XdXfXdXdXdXfXfXfXfXfX",
"fXfXfXfXfXfXfXdXiXrX-Xc.b.1.1.<.S.%X%X,X<X>X<X1X1X>X,X,X,X$X$X$X2XS.[ 1.1.n.b.*XiXdXdXdXdXfXfXfXfXfX",
"fXfXfXfXaXaXfXdXiXrX=X| 1.1.4.*.U r.9.9.r.8.r.r.8.8.8.8.8.8.8.8...] X.p.,.1.b.:XiXdXdXdXdXfXfXfXfXfX",
"fXfXfXfXaXaXfXdXiXqX=X<.1.,.3.:.U t.0.5.U.^.5.5.U.h.7.5.U.!.5.0.F.U X.3.3.,.<.oXiXdXdXdXdXfXfXfXfXfX",
"fXfXfXfXaXaXfXdXiXrX=X<.e.u.#.@.G U.7.5.h./.%.+./.j.+.%.~.Q.7.+.!.) @.#.3.4.<.oXiXfXfXfXfXfXfXfXfXfX",
"dXdXfXfXaXaXfXfXrXrXOX] =.>.@.@.Y Q.6.6.s.~.7.d.j.{.y.6.'.'.G.e.'.Y o.@.@.>.[ oXiXfXfXfXfXfXfXfXfXfX",
"dXdXfXfXfXaXfXfXiXrX=X{ ) Y H D D f.y.d.T.~.7.0.`.}.0.7.W.W.p.e.H.A D H H Y ] OXiXfXfXfXfXfXfXfXfXfX",
"dXdXfXfXfXaXfXfXyXrXwX@XG.s.g.u.&.{.u.5.!.}.N.8.{ ..8.N.}.W.7.d.XX6.u.f.f.d.@XwXiXfXfXfXfXfXdXfXfXfX",
"dXdXfXfXfXfXfXfXdXrXwX,X].}.{.j.g.E.7.t.Y.{ K M j h M S =.`.0.=.Q.H.k././.[.,X5XiXfXxXxXfXfXfXfXfXfX",
"dXdXfXfXfXfXfXfXfXrXwX>X_.|./.^.R.'.7.M.] v 9 f 0 q w 8 j ` q.w.}.R.k.E.^.[.,XrXdXfXxXxXfXfXaXaXfXfX",
"dXfXfXfXfXfXfXfXfXiXrX1XXX}.~.~.y.}.q.| v w y B p s s l 9 x ] q.}.a.R.{./.[.+XrXdXfXfXxXfXfXfXaXfXfX",
"fXfXfXfXaXfXdXdXfXiXiX-XG.H.H.s.6.XXm.b l s p t 2 > p t 0 w c 9.XXG.a.H.H.F.+XrXfXfXfXfXfXfXfXfXfXfX",
"fXfXfXfXaXfXdXdXfXfXyXB.*.-.-.O.Y W.] e 0 p a p s 4 4 4 s i z P ].Y X.>.>.=.b.eXfXfXdXdXfXfXfXfXfXfX",
"fXfXfXfXaXfXdXdXxXfXxXA.,.3.>.O.Y W.I q t p 4 4 > > 3 > u 0 9 n ].) -.-.-.w.C.rXxXfXdXdXfXfXfXfXfXfX",
"fXfXfXfXaXfXiXiXfXfXyXV.,.@.;.;.Y F.b 9 u 4 < > , 1 5 3 u y q n G.Y X.>.;.=.V.eXfXfXdXdXfXfXfXfXfXfX",
"fXfXfXfXaXfXdXiXfXfXyXV.=.O.@.O.F N.x w u < > 4 > > : : < t 0 x q.G X.>.;.*.m.8XfXfXdXfXfXfXfXfXfXfX",
"fXfXfXfXaXfXdXdXyXfXxXB.=.:.:.O.F N.c f u > < a a a 6 6 4 4 y c w.G ;.-.O.e.m.yXfXfXfXfXfXfXfXfXfXfX",
"fXfXfXfXaXfXdXdXfXfXyXB._ o.o.X.F q.b 9 1 7 5 < = : : 6 5 , y c M.A T @.o._ c.iXfXfXdXdXfXfXfXfXfXfX",
"fXfXfXfXaXaXdXdXfXfXdXOXw.u.@.O.X.J.V 9 1 a > o o   . 3 a 4 s v G.+.o.7.7.0.oXiXfXfXdXdXfXfXfXfXfXfX",
"fXfXfXfXaXaXdXdXfXfXiX5X].~.~.Q.a.J.n w u 6 o o o % % # 7 p y v D.y.R.'.~.].3XiXfXaXfXfXfXfXfXfXfXfX",
"fXfXfXfXaXaXdXdXfXfXiX5X].~.~.R.a.J.m w 5 6 % % o % % # 7 p y c D.y.R.~.~.].<XiXfXaXfXfXfXfXfXfXfXfX",
"fXfXfXfXaXaXdXdXfXxXiX5X`.E.~.R.a.J.V w 5 6 % % % % % % 7 p y c D.y.R.~.E.].<XiXfXaXfXfXfXfXfXfXfXfX",
"fXfXfXfXaXaXdXdXfXfXiX5X].E.~.R.p.K.Z q 5 7 @ % % % % % 5 u i n D.i.R.~.E.`.3XiXfXaXfXfXfXfXfXdXfXfX",
"fXfXfXfXaXaXdXdXfXfXiX5X`.E.~.R.y.W.K e 5 6 @ & & % % % 5 u i n D.i.k.~.E.`.3XiXfXaXfXfXfXfXfXfXfXfX",
"fXfXfXfXaXaXdXdXfXfXiX5X`.E.~.k.y.W.S e t 6 @ & & & % % 5 t i n D.i.k.E.E.`.<XiXfXaXfXfXfXfXfXfXfXfX",
"dXdXfXfXsXaXdXdXfXfXiX5X`.E.E.j.u.T.S e t N & & & & & % 5 t q m s.i.k.E.R.`.<XiXfXaXfXfXfXfXfXfXfXfX",
"fXfXdXaXaXaXfXdXfXfXdX5X`.R.E.k.u.T.S r p B & & & & & & 4 t e m s.i.k.E.E.`.<XiXfXaXfXfXfXfXfXfXfXfX",
"fXfXdXdXaXaXfXfXfXfXxX4X.XT.E.k.&.s.L r s 7 & $ $ $ ; + 4 u f m D.&.E.R.R.].3XiXfXaXfXfXfXfXfXfXfXfX",
"fXfXdXdXfXfXfXfXxXdXiX4X_.T.E.k.&.s.L r d B ; ; ; # & @ B y q K U.$.f.R.'.].5XeXfXaXfXfXfXfXfXfXfXfX",
"fXfXdXdXfXfXfXfXfXdXxXqX_.!./.l.7.T.L r d B & $ # # & @ a t 0 K U.$.k.E.'.J.qXiXfXaXfXfXfXfXfXfXfXfX",
"fXfXdXdXfXfXaXaXfXiXiXqX_.!.k.k.%.D.L r t B * * X * * . p s f K d.$.k.R.Q.F.5XiXfXfXfXfXfXfXfXfXfXfX",
"xXfXdXdXfXfXaXaXdXuXiXqX_.!.R.E.6.D.R x y a X   O O     0 l e C G.6.k.R.'._.5XrXdXfXfXfXfXfXfXfXfXfX",
"xXfXdXdXfXaXaXfXdXiXiX<X_.W.Q.~.p.q.I r w z , = , = - , k q q I t.y.E.R.'._.=XiXdXfXfXdXdXfXfXfXfXfX",
"xXfXdXdXfXaXaXfXdXiXyXL.9.e.p.p.e.<.P r 9 i i k k q z z f 9 r I =.O.a.p.e.1.B.eXdXfXfXdXdXdXfXfXfXfX",
"fXfXdXdXfXfXaXdXdXiXeXx.] X.2.X.E <..XA.A.Z.Z.Z.L.Z.Z.Z.Z.A.Z.@X<.X.X.X.X.[  .4XdXfXdXdXdXdXfXfXfXfX",
"fXfXdXdXfXfXfXfXyXiX8X} R E E E *.XXXX$X,X2X%X,X,X$X$X$X,X,X#X+XXX,.T T E R Q 8XxXfXdXdXdXdXfXfXfXfX",
"fXfXdXdXfXfXfXfXdXxX9Xx.~ E E E E e.F.Y._.).).).)._.Y.Y.Y.P.S.S.M.E E W W ^ } 8XxXfXdXdXdXdXfXfXfXfX",
"fXfXdXdXfXfXfXfXdXxXyXc.P ^ ^ E L { XX(.(.(.).).I.I.Y.Y.(.).).@X| L ^ E E ~ x.yXfXfXfXdXdXdXaXaXfXfX",
"fXfXdXfXfXfXfXfXdXiXxXv.P ~ ^ ( J m.2X#X$X$X2X%X>X#X#X#X#X$X,X3XA.J ~ ^ ^ P x.xXfXfXfXdXdXfXaXaXfXfX",
"fXfXdXfXfXfXfXfXdXyXxXL.Q / / / z.*XeXqXwXwXiXeXyXyXeXqXqXqXeXeX;X' / ~ ~ Q v.xXfXfXfXfXdXfXfXfXfXfX",
"fXfXdXfXfXfXfXfXdXdXfXyX4XqXeX9X7XxXiXiXiXiXxXxXvXxXxXiXiXiXfXfXdX0XeXqXqXqXeXfXfXaXfXfXdXfXfXfXfXfX",
"fXdXdXfXfXfXfXfXfXfXfXdXiXrXiXyXfXfXuXiXrXiXfXfXfXfXdXiXiXiXfXsXsXaXiXeXqXiXdXpXaXaXfXfXfXfXfXfXfXfX",
"fXdXdXfXfXfXfXfXaXfXpXaXiXtXdXfXfXuXdXiXtXuXfXhXfXfXdXiXiXiXfXaXpXaXuXiXiXiXdXfXaXaXfXfXfXfXfXfXfXfX",
"fXfXfXfXfXfXfXfXfXfXfXfXfXfXfXfXfXfXfXdXdXfXfXfXfXfXfXdXdXfXfXfXfXfXfXdXdXdXfXfXfXfXfXfXfXfXfXfXfXfX",
"fXfXfXfXfXfXfXfXfXfXfXfXfXfXfXfXfXfXfXfXfXfXfXfXfXfXfXfXfXfXfXfXfXfXfXfXfXfXfXfXfXfXfXfXfXfXfXfXfXfX"
};
