/* XPM */
static char *depositphotos_363183642_stock_illustration_seamless_pattern_geometric_shapes_vector_12_45_06_AM1709336924[] = {
/* columns rows colors chars-per-pixel */
"50 50 123 2 ",
"   c #978B8F",
".  c #8F8C97",
"X  c #918E97",
"o  c #9D8A90",
"O  c #9D9394",
"+  c #95929D",
"@  c #9C949B",
"#  c #9D989C",
"$  c #A29495",
"%  c #A2969A",
"&  c #A89398",
"*  c #A49A9B",
"=  c #AB9D9C",
"-  c #A9A19E",
";  c #B0A29F",
":  c #9693A0",
">  c #9A9AA3",
",  c #A397A1",
"<  c #A69CA2",
"1  c #AA9EA3",
"2  c #A09EA9",
"3  c #A7A1A5",
"4  c #ACA2A4",
"5  c #AFAAA7",
"6  c #A3A3AB",
"7  c #ACA4AA",
"8  c #B2A5A5",
"9  c #B2AAA7",
"0  c #B2A6AC",
"q  c #B5ABAC",
"w  c #BAADAD",
"e  c #B6B0AC",
"r  c #BAB1AD",
"t  c #ACAAB2",
"y  c #B5ABB2",
"u  c #BAAEB2",
"i  c #BFAFBA",
"p  c #B6B0B4",
"a  c #BDB2B3",
"s  c #BFB8B2",
"d  c #B7B0B8",
"f  c #BCB4BA",
"g  c #BEB9BE",
"h  c #C1B5B4",
"j  c #C8B6B2",
"k  c #C3BAB5",
"l  c #CDBCB7",
"z  c #C2B6BA",
"x  c #C5BBBB",
"c  c #CABDBC",
"v  c #D0BDBE",
"b  c #CAC0B7",
"n  c #C7C0BA",
"m  c #CCC2BD",
"M  c #D4C3BE",
"N  c #D1C8BF",
"B  c #DACABC",
"V  c #C4BBC1",
"C  c #CABEC2",
"Z  c #CDBDC8",
"A  c #D2BFC1",
"S  c #C6C1C4",
"D  c #CDC3C3",
"F  c #C7C1C8",
"G  c #CDC4CA",
"H  c #CFC9CD",
"J  c #D3C5C4",
"K  c #D8C6C4",
"L  c #D5C9C5",
"P  c #DACBC5",
"I  c #D2C5CB",
"U  c #D5CBCB",
"Y  c #DACDCC",
"T  c #DDD1C6",
"R  c #D7D1CC",
"E  c #DCD1CD",
"W  c #D4CBD2",
"Q  c #DACED3",
"!  c #D5CDD8",
"~  c #D9CFD8",
"^  c #D6D0D3",
"/  c #DDD3D3",
"(  c #D7D0D8",
")  c #DCD4DA",
"_  c #DED9DC",
"`  c #E0CDC7",
"'  c #E1CECA",
"]  c #E1D3CD",
"[  c #E5D8CF",
"{  c #E2D5D4",
"}  c #E9D7D4",
"|  c #E4D9D5",
" . c #E9DBD6",
".. c #E3D6DA",
"X. c #E9D6D9",
"o. c #E5DADB",
"O. c #EADCDC",
"+. c #F1DFDC",
"@. c #E9E0D7",
"#. c #E6E1DE",
"$. c #ECE1DD",
"%. c #F1E2DE",
"&. c #DED6E1",
"*. c #DFD9E3",
"=. c #E5D7E1",
"-. c #E6DBE2",
";. c #EADDE2",
":. c #E5DEE9",
">. c #E6E0E2",
",. c #ECE2E3",
"<. c #EDE2E9",
"1. c #F2E3E2",
"2. c #F1EAE4",
"3. c #F1E4EB",
"4. c #F3EBEC",
"5. c #F8EEEC",
"6. c #F2E6F0",
"7. c #F2EDF2",
"8. c #F8EFF4",
"9. c #FCF2F3",
"0. c #FFFAF6",
"q. c #FFF6FC",
"w. c #FFFBFC",
/* pixels */
"w.W g ( W ^ x a U C w c Z z Z u 6.q.i I Y W Q u V W g y G C C C V q.6.0 Q U I I f F ! f V C C c h G ",
"*.d Z -.-.-.G z c u f C G z z 0 I ~ 0 ( O.....x S F p V F z h 0 y ~ Z u O.;.,./ f S g t V x j u w p ",
"W 7 ! :.o.o.D k c = J ....) / W ! V u ..;.O.^ D V p 6 _ ..;.X.o.) ~ y D ;...o.I g S 7 f -.;.X.O./ W ",
"H 2 =.-._ o.../ / * / O.O.;.o.;.;.f u O.O.O./ / >.S t <.=.-.X...=...1 U O.{ ;.o._ >.t g ,.;.{ | ;.O.",
"H 7 >.) o.o.-.,.| * L o...o.....3.i z O.| o./ #.>.n # >.) ..O.O.=.:.4 I ,./ | ,._ o.6 p >.#.X.O.{ X.",
"x w >.o.o.o./ o.{ - x ,.| ;...{ ..p m O. .O.| | ,.H 6 o.O.o.| / ....0 K 1.O./ / ,.>.f e ,.| | O.O.;.",
"u a o./ $.O.| | ..q r $.{ / ] J C 9 c .. . .| { W U * ^ o.O.O.| C f 8 J O. .,.o.( / S 3 _ | |  .Z c ",
"u k Y L R G x n L r 5 ,.| O.;.E c a D L L L N c D ^ * G $.O.} { U z a Y U M L c D D S - ..|  . ...I ",
"{ Y c J J m H k w.#.r U O.| E | U o.m l P N N k R w.n S / .. .{ ..I / J J U N J e 7.w.a Y { { { ..^ ",
"M K K  .,./ R e | #.U E E / U J q U K P %.@.] L n ,.^ R R E P Y c h Q K ] X.{ o.a D o.G E Y Y ' U p ",
"l J J { $.O./ 9 5 / / | / | O.U % D J P  . . .R * n _ / .. .] %.0 0 Y K ' O.O.O.n 3 H o./ { { { _ 6 ",
"` } ' ] | @.o.g e / / O.o.| O.K 8 { { Y [ [  .] - s #.o.| %.{ 1.z a ..{ { O.| O.U - U ,./ O.+.| >.6 ",
"` +.}  .O.O.| s s >.o.| O./  .J - ..O. .}  . .{ e S #.o.| | } O.u z ;.X.O.O.O.,.Y 7 ( @...O.X.O.*.> ",
"M } } } | | O.x 5 #.#./ o.| 1.J * { O.{  .|  .o.9 D -.O.o.{ +.+.4 u =.X.X.X.{ ..U 7 ( o.O...{ %._ > ",
"M } } } | | ,.G d ,.o./ o.{ %.h = Q | {  .{  .$.r U ;.^ ..| X.} 1 0 o.O. .;.| O.Y 9 _ o.Q O.} +.! : ",
"j ` ` ] ..{ | x f / H L ,...O.w o D Y ]  .] | / r D ..D / O. .X.% 1 W Y ' { E o.^ a ( ) z 1.X.O.G . ",
"9./ G D x N k r m R w Y ;.O.{ 0 H q.c J b b N s r R I a O.;.| Q > 8.4.m m m j x r h o.f A X.X.X.z p ",
"w.D n R E / m k R J w h a u h 7 -.8.f U E E E b J P j 0 z j h h g 7.) r ..] { Y x m U q z A h w r z ",
"( 3 D #.,.#.x r h ; c U J G C V G F 4 / ,.$.| h r u u I W I c z f ! f u 2. .1.Y w V w w I A K A z x ",
"H 3 ) o.) ,.Y G J * Q ;.;.,.=...) V 9 _ O.| | D U a 0 ;.X.o.-...! *.y z ;.Y O.Y C Q 3 g 3.;.;.X.o.o.",
"U 7 >.-.) :...o...* Q -...-.=.=.<.V z ;...^ #.| 3.Z 1 =...o.;.;.:.:.t W ;.' X.o.-.<.1 V 6.=.X...X.o.",
"H 7 o.:.=.o.o.o./ * I ;...=.=.=.=.u z ;.O.| >./ ;.V 1 =.:.=.=...*.~ 1 ~ ;.;.=.o.:.;.t u ;.=.;.X.O.O.",
"G u ..) o.o.;.>...0 V ;./ ..;.Q :.z Z ..o./ O.O.;.W 1 ~ ;...X...:.W y U ..X...o.-...g y =.=.X.X.' ) ",
"1 w $...o./ o.L Q 5 w 3.O...X.c z , C O.O./ / / U G 1 I ;.......i y y U O.O.| { / I V 7 ) X.X.X.I x ",
"A U l m D x D x #.n 4 @.o.| $.O.J E b n N b m s G ,.3 a $.O. .$.o.S ^ x l K c x x R _ O O.{  . ...! ",
"P ' K Y / L L a 0.$.k | E / { N J { L L T L R s U 0.U H | R B R R x E m P { E E a 2.w.f U | [ L _ G ",
"M K J { @.| / e n #.D E P E E N 8 M N N @.@.@.R 4 R / R Y T P | h e U m Y  . .O.q m #.^ P E T R U t ",
"l B K } | @.@.e - #./ | | |  .P & J L B / @.@.R - n / / / @.[ @.q q E L ]  .[ O.x * n #.| | ] $.( 6 ",
"' } } X.| O.#.a e ,./ | O. .O.K 8 }  .] | | @.R p x >.o.O.$.[ @.a a O.{ { O...O.Y 3 ^ $.| | @.@.>.6 ",
"' %.X.X...O.#.z q o._ | o.|  .K = } +.} | #.#._ e g >.o.| | ] $.q h $.O. . ...O.^ 3 _ o./ /  ./ *.> ",
"K X.} ..O...o.S a >.,.o.O...X.C & X.X.| O./ / _ f F <.=.o.| | O.1 q o.{ } X.{ -.) 7 ) -.o.#.| >._ : ",
"v X...O.,...o.D p o.^ U o.O.X.h o ' ..} ,.@.#.>.q F -.W / O. .| % 7 ..| O.O...;.W y _ ) Y o.E #.H . ",
"K ' I Y K E { l c o.k U 1.| ..w & W Q J U L R E s R ) a =.X.;./ O y U U Y M  .L m k o.x H | O.,.V > ",
"8.Y x J J c l q J J w c { Q W 4 ;.q.I A P l N e s D D r Y Y { I q w.5.c L M b l r s R s m Y ' E f g ",
"9.x Z o.;...J c Y h h u u h z 0 =.;.1 Y | / @.s J G f g V h u 8 7 6.I q  . .] | h J n w z z w q u V ",
"I 1 I =.o.{ c a k & / ....W I A Z Z 1 X.#.O.#.k z q 3 Y Q Q { W W W 8 h 1.O.| { q m t a ..X.' ] C c ",
"I 0 =.=.X.-.( Y ) % Q ..=.;.;.<.=.Z i ;./ | / L / S 7 :.;.-.=.o.=.&.i S O.{ O.U W -.y z ;.-...X.1.o.",
"Z 0 ~ =.=.;.o.;.~ % Q ;.;.=.) &.:.z h =.o.,.#.#.-.S < -.=.=.X.=.&.*.0 I ;.X.O.;...=.7 u 3.X...O.| O.",
"Z h =.X.;.....o...4 Z X.Q ) =.3.;.z C o.O.@.R _ <.U < ..=.o.....<._ 3 I 1.' { ..,.<.f y <.{ X.} X.%.",
"h h =.X.;...;.O...8 h <.+.X.X.A Q y x O.#.o.#.#.>.G % ( ;.X.| { W G 4 / 1.| 1...o.>.f 8 X...O.| Y I ",
"8 c U { / Y L D D w 8 ,.O.O.{ L w 0 k E E R R R H U O I O.E $.] g 9 a Y O.K E L D G n O O.|  . .^ x ",
"K L M l x b D b 5.L 8 | ]  .%.%.{ ] J l k l n s m 9.z x ,.O.[ @.#.R D k c l J m x $.4.9 R  . .] <.( ",
"K P L { | / R e 0.2.m / Y P P M w ] N T  .[ / n n w./ n | E b ] m n E J T  .} / h E 5.H U T ] ] W d ",
"M l N | @. ./ e q E R E ]  .} L $ L b L @.@.@.T ; H / E E E T @.q 5 U J T %. .$.k 9 ^ / ] T P [ ) t ",
"K P P { | / o.r 4 o.#.| {  .| M ; } K P #.E | E - p o.,.{ | @.@.k e / P Y X.] O.c 3 Y o.| ,. . ._ 6 ",
"'  .| $.;.o.#.f e o.o.O.O.O.+.T 4 { O.o.@.| o._ e D ,._ o.O.{  .a p ,.@.O.1.{ ;.W 7 ) O.o. .{  .:.2 ",
"Y 1.{ ..../ ,.S f _ ....O...} A 4 { #./ / | o.o.q G :.Q ..O. .O.9 p o.o.....{ ;.) 7 ) :.o.| ]  .*.: ",
"v +.{ O.;.o.o.m p o.;.....X.;.c * Y 1.| | ,.O.o.f S ;...O.| O.o.< d o.o.O.X.X.;.) 7 ......O.X.O.( . ",
"l K } ' } {  .m k ..J ) o.{ 3.h o K Y ] } } {  .q R E b O...O.| @ q L E ] ]  . .Y q ..R J | X.1.G + ",
"' ' ` M B K T j b | x Y X.o.<.1 8 | U P K ` P P r P R k | | O./ < V { P B B P L U w [ N M  .X.;.Z : "
};
