/* XPM */
static char *WhatsApp_Image_2024_03_02_at_23_36_00__1__LE_auto_x2__1_1709419101[] = {
/* columns rows colors chars-per-pixel */
"50 50 256 2 ",
"   c #020303",
".  c #050A03",
"X  c #04060A",
"o  c #050A0C",
"O  c #0B0B0C",
"+  c #0A0706",
"@  c #140C0A",
"#  c #0B130A",
"$  c #13110C",
"%  c #18130A",
"&  c #050B12",
"*  c #0C0D12",
"=  c #030716",
"-  c #130D14",
";  c #180A15",
":  c #0D1214",
">  c #0B131B",
",  c #061214",
"<  c #131314",
"1  c #1A1513",
"2  c #1B1B16",
"3  c #151519",
"4  c #1A151B",
"5  c #15191C",
"6  c #1B1B1C",
"7  c #161915",
"8  c #351805",
"9  c #231B15",
"0  c #221D1C",
"q  c #2A1A17",
"w  c #331C13",
"e  c #381D1A",
"r  c #25140B",
"t  c #1D211B",
"y  c #0F2016",
"u  c #24221E",
"i  c #2B221D",
"p  c #282417",
"a  c #352215",
"s  c #39261A",
"d  c #39321B",
"f  c #31210D",
"g  c #1D1D21",
"h  c #141D25",
"j  c #221E23",
"k  c #231F2D",
"l  c #261A30",
"z  c #1E2123",
"x  c #1C222A",
"c  c #232324",
"v  c #2B2423",
"b  c #25262A",
"n  c #2A2729",
"m  c #2B2A2C",
"M  c #292928",
"N  c #3B2924",
"B  c #352928",
"V  c #37322C",
"C  c #2E2E31",
"Z  c #252A34",
"A  c #333234",
"S  c #3C3B3D",
"D  c #393637",
"F  c #2E3032",
"G  c #462919",
"H  c #522C1A",
"J  c #46321D",
"K  c #5A351A",
"L  c #492506",
"P  c #6A3D1B",
"I  c #472C23",
"U  c #562D22",
"Y  c #493426",
"T  c #583A27",
"R  c #473C37",
"E  c #553837",
"W  c #633D2C",
"Q  c #663728",
"!  c #763A2B",
"~  c #673C34",
"^  c #753C34",
"/  c #421E0E",
"(  c #3E472C",
")  c #7B4F1A",
"_  c #44443C",
"`  c #584835",
"'  c #5C402A",
"]  c #6A452A",
"[  c #744C2C",
"{  c #78482A",
"}  c #7E5525",
"|  c #694736",
" . c #744C34",
".. c #784837",
"X. c #7B5539",
"o. c #685336",
"O. c #59431A",
"+. c #3C3D41",
"@. c #2F3045",
"#. c #413C45",
"$. c #454443",
"%. c #4A4849",
"&. c #574B45",
"*. c #58534C",
"=. c #595555",
"-. c #575555",
";. c #434254",
":. c #684C45",
">. c #794D41",
",. c #795547",
"<. c #655B59",
"1. c #635042",
"2. c #63615D",
"3. c #756347",
"4. c #6A6869",
"5. c #74716E",
"6. c #7A7876",
"7. c #736E6E",
"8. c #605E61",
"9. c #983C18",
"0. c #853A27",
"q. c #8B5719",
"w. c #914E15",
"e. c #854B26",
"r. c #885228",
"t. c #844A39",
"y. c #8B5535",
"u. c #83523C",
"i. c #885739",
"p. c #9B5A35",
"a. c #955C3C",
"s. c #9B5D3B",
"d. c #965736",
"f. c #955329",
"g. c #A15E39",
"h. c #A35927",
"j. c #8E622A",
"k. c #9C613D",
"l. c #966538",
"z. c #996227",
"x. c #A8672C",
"c. c #A3633C",
"v. c #A96936",
"b. c #AD743A",
"n. c #B7783C",
"m. c #B26C34",
"M. c #A05B18",
"N. c #D97119",
"B. c #E27B1E",
"V. c #CF7B37",
"C. c #D17830",
"Z. c #834D40",
"A. c #885846",
"S. c #9A5D44",
"D. c #955B48",
"F. c #8B5A50",
"G. c #A15E42",
"H. c #A65F49",
"J. c #8B6246",
"K. c #9D6444",
"L. c #94634C",
"P. c #9D6A4B",
"I. c #996348",
"U. c #8D6455",
"Y. c #986856",
"T. c #997554",
"R. c #93774F",
"E. c #A36543",
"W. c #A36946",
"Q. c #A46B4B",
"!. c #AB6D4C",
"~. c #A7664A",
"^. c #AB714D",
"/. c #A77448",
"(. c #B3734D",
"). c #B97747",
"_. c #A66B55",
"`. c #B66E57",
"'. c #AD735B",
"]. c #A97457",
"[. c #B87757",
"{. c #B36D4A",
"}. c #92756D",
"|. c #A77768",
" X c #B77C65",
".X c #AB7C74",
"XX c #C57A47",
"oX c #C47B53",
"OX c #C37F63",
"+X c #EE821D",
"@X c #CA8237",
"#X c #D68637",
"$X c #DD943A",
"%X c #D5852C",
"&X c #E08C3A",
"*X c #E79535",
"=X c #EB9534",
"-X c #EFA63C",
";X c #9B8154",
":X c #B08753",
">X c #A88467",
",X c #B68771",
"<X c #C88649",
"1X c #D79743",
"2X c #D58A53",
"3X c #CB8F56",
"4X c #E79644",
"5X c #EE9E50",
"6X c #D4AC59",
"7X c #F6A847",
"8X c #F9B957",
"9X c #E7AE4A",
"0X c #C68665",
"qX c #D79C63",
"wX c #C9906E",
"eX c #D9A468",
"rX c #D7A574",
"tX c #E3A86A",
"yX c #E8B06D",
"uX c #E08C67",
"iX c #FDC95A",
"pX c #FDD35C",
"aX c #FAC963",
"sX c #FBD569",
"dX c #F5D270",
"fX c #FFE37A",
"gX c #DAC164",
"hX c #837E82",
"jX c #898785",
"kX c #9A9794",
"lX c #93908E",
"zX c #B09691",
"xX c #B1A394",
"cX c #ABA9A7",
"vX c #B5AEAA",
"bX c #B4B1AE",
"nX c #BAB7B5",
"mX c #B4AFB1",
"MX c #D3AD95",
"NX c #C1BDB9",
"BX c #E8B88A",
"VX c #CAC6BA",
"CX c #EBC99E",
"ZX c #BFBFC1",
"AX c #CAC7C5",
"SX c #D2CAC8",
"DX c #D3D1CE",
"FX c #DAD7D5",
"GX c #E0DADB",
"HX c #E5E1DE",
"JX c #ECE9E6",
"KX c #E8E4E4",
"LX c #F2EEEA",
"PX c #F5F1EF",
"IX c #FCF9F6",
"UX c #EFF0EA",
/* pixels */
"] J.(.[.).^.E.s.^.k.f.v.[.g.k.y.i.a.K.K.W.K.y.l.l.I.k.s.p.c.c.c.k.g.w.V.<X[ a G e.x.B.-X-XsXfX%XN.N.",
" .I.).oX:X{.E.s.^.c.r.v.).E.k.S.a.a.a.K.~.K.s.k.l.d.p.p.p.p.g.c.k.c.r.n.<X .a G } x.&X=X-XpXfX$XN.N.",
"X.I.(.:X[.!.K.c.{.{.f.k.).).g.G.s.d.d.E.Q.k.a.K.c.p.l.E.E.c.v.g.k.k.e.b.<Xo.N I e.x.%X=X-XsXsX%XB.N.",
" .I.^.(.(.~.d.p.(.p.q.n.<XXXc.!.P.a.I.Q.L.L.A.F.i.i.A.A.i.s.v.g.v.v.r.n.<X[ a a { h.&X=X7XpXsX*X+XB.",
" .I.{./.^.E.d.s.).c.f.m.XX<X[.L.] T ,.,.o.:.T I Y I s I Q ,.P.E.v.k.e.b.@X[ e s { h.#X=X7XiXfX$X+X+X",
"X.P.{.{.!.E.d.g.v./.W.(.<X[.J.J s s E R R R B v B C D V N G ] A.P.I.[ b.<X[ 0 s ! v.#X*X7XpXsXx.q.q.",
" .I.!.k.E.a.y.p.XXa.L [ X.K a 0 M M u 2 v B m A A C M A _ Y N Y J Y a l.:Xe.w e ] m.%X4X7XsXdXw.d d ",
" .P.!.c.S.s.y.g.oXK.8 _ o.I q C z M 7 u n 0 0 6 n V B v V D V S _ R i i.V.{ e N ] x.@X*X7XiXfXz.O.O.",
"[ P.Q.K.G.d.y.d.XXg.s Y J B 6 9 c u 6 2 2 2 2 $ 2 2 9 B i v B v V *.1.J.n.r.e N ] m.C.*X7XsXsXM.j.j.",
"[ Q.!.W.G.S.y.g.XX{.J s f z c i t 7 t t t 7 7 $ < 1 1 6 1 i 0 0 u N V i.n.} w N ] x.@X*X-XsXsXz.l.l.",
"[ Q.!.W.G.d.y.g.<XoXY w a z c 6 0 u u 0 7 % 1 1 4 1 3 3 4 u 2 u 9 1 % ] ).{ w I ' x.@X*X9XsXdXz.j.j.",
"[ !.^.K.G.d.y.d.XX).I i N t 6 9 7 7 7 7 2 6 4 O $ # 7 3 6 n 9 q i 9 % ' n.e.a s | x.@X$X7XpXaXz.} } ",
"i.].^.W.E.S.y.d.XX<XY v 9 1 r q a s E ` I q q G s a w 1 % % 9 j 9 9 1 | ).e.e N ~ v.#X#X=XiXsXf.q.q.",
"i.`.^.K.G.a.y.d.oX2XT g a &.,.A.S.K._.|._.D.t.t.y... .U e w v e 2 2 % [ ).r.w N ~ v.#X&X-XiXiX) ) ) ",
"X.].!.W.G.a.i.d.oX2XU 1 w U. X].E.(.[.(.`.!._.!.G.~.~.~.D.A.,.I 2 2 % o.b.} w V | x.@X1X7XiX6XL p f ",
"X./.^.Q.E.D.i.a.<X2X' 6 w T.`.{.[. XOXOXOX X[.[. X[.`.`.OXwX,X] O 7 % [ x.r.w B ] x.V.#X4XiXgXJ r r ",
" .].Q.K.K.S.y.y.XXuX .. Y ].[.~._.T. X XOX`.`.[. X_.Y._.'.wXMXY.r # - [ x.X.q G ~ b.C.#X*XaX6Xa 1 % ",
"! T.'.Q.S.S.y.a.2X2X3.. #.|.Z.Z. .W K Q Y.|.~.A.! ] U Q ~ Z.,XMXN O 9 e.x.X.e B E x.#X$X$XaXaX8 % p ",
"] a.K.a.y.y.t.} :Xm.P.T I ~ :.~ :.| | U Q |.>XW e I | ,.,...:.,X1.; J f.x.[ q b ~ v.V.@X5X8X9X8 O.;X",
"P.W.a.d.y.y.e.} b.f.0.A.I ,..XY.U.F.,.:.U Q ~ U >.~ U ~ Z...F.A.Y :.o.w.h.) N b T v.#X#X1X8XiXL ;XBX",
"eXeXqXwX3X,X3X3XqX).~.y. .P.,X.XL.Z.A.U.>.F.U.F.'.D.t.! Z._._.D.A.~ K f.x.e.9 b ' b.V.#X4X7X9X>X;X;X",
"3XqX6X6X3XeXeX6X2X:X:Xk.|.F.,X,X'.D.D.Z.t.,XwXt.D.'.D.Q.Y.Y.].|. XL.T T } A.q c T b.V.@X*X8X9XP ) K ",
"3XtXeXeXqXeXqX6XyX:X..>X>XJ.D.S._.Z.t...Y..X X|.] ..t.A.U.|.U.'. X>Xr $ + r N b T {.#X%X&X7X1XT X.[ ",
"3XtXtXtXqXqXeXyXrX` ; T T./.0...Z.^ ..^ ^ ^ Z.Q ^ Q ..^ ^ >.t.I.>XU.*   , * @ ;.:.v.XXC.#X7X1XI o.O.",
"3XyXtXtXyXrXwX;X` t , X T P.s.i.! ! ~ ^ 0.0.0.0.t.t.! 0...t.S.D.Y.q   o & ; 3 2 3.0Xn.V.<X*X$X] ` d ",
"<XqXrXrX].X.d 9 9 j X X N L._.Q.a.U ~ F.U.Z.F.Y.L.>.Q d.D.y._.P.Y +   , = < 1 < > :.0X2X4X=X$X! / G ",
"h.h.f.K a j 1 C z 4 < , . ,.~./.].t.Q F..XzXhX XF.U ..~.c.~.`.L.%   o * * < 3 : b 3 p X.[.tXyXv.X.U.",
"w.9.9.s p j j Z x - + # . N J.^.[._.F.^ F.U.Y.Z.^ D._.~.E.G._.:.+   o O O < 4 h 1 b Z h 5 _ T.wXCXMX",
"9.9.0.G M 7 u u 4 $ . * > . Y _.{.!.G.S.t.D.Z.0.H.'.[.H.S.].U.@   X o * ; 4 - g t h +.+.@.=   ; xXrX",
"w.0.! R t 2 0 t 0 o # 4 - o q t.Q.P.~.K.~.S.H.H.`._.!.g.'.Y.I   X O O < 4 4 3 ; 4 z > <.zXhXR   <.NX",
"! G s n 4 j j 6 9 , & g 4 $ V | X._.^.^.'. X|.OX`.'.'. XL.U e + + , - < 5 < 5 g u O -.VXAXSXVX<.9 5.",
"3.@ # * g h 5 5 4 * x 3 4 % s ` T u.!.`.`. X X'.[.'.Y.t.Q Q e * O 1 6 5 > & * O   b nXVXmXNXFXAX` &.",
"BXT + 7 j v 1 O 4 4 < 3 < ; 0 &.T J H ..A.Z...t.| ~ H H U I j - O : O   * R S V $.mXSXlXhX>X8.Z B _ ",
"CXo.7 5 j 7.AX&.- < 3 5 h - 1 i  .W G 8 8 e a a 8 / H I N e 4 < O + $ $.lXnXSXnXDXkX#.+   .   .   + ",
"3.p < b j &.IXFX* : , : > 3 - $ a ' X.] H H G H H G e r @ O : , . +.bXbX6.4.-.-.A 4 1 6 -       O O ",
"p 2 6 b j 0 8.jX- & X . & > < < # u E | X...] Q I e @ + . o X X M kX2.c 6 6 6 - < F S C c m C A =.=.",
"z 6 6 6 n C 2 O O X X X X = * O = = X ; 9 v i 0 O + X X o o + + 6 c X < j F C b n 3 6 m A +.-.8.7.7.",
"m 6 c u b m x : O X O O * X X X * * - * O * > > : , & X X   + $ O + < < 3 j 5 3 5 C b 5 c C D ;.#.%.",
"b j c c b F x * * * O O * O O * + # O * 4 ; 1 - : * O X X O * - : X     X O 1 n b c A $.+.m z c S +.",
"g g M C x m 6 < & : , o 3 > * O - & & > h 5 : < O O O + . 3 h g b 5 * *   < 5 j 6 g b m +.%.+.6 C F ",
"c u c v m t 6 : 3 > 3 > 3 h * g , < D :   : * * & X o O & b 3 g m A b 1 < 3 c b j b 5 * < c $.m c c ",
"b c c m 4 c 1 3 * < : & g g - O   _ HXkX-.1   O o : O - - < z c b F b z z 3 6 6 < 6 6 5 : + b C g g ",
"2 b c c < %.cXZ 1 -.6.5.#.A =.8._ bXJXNXJXAX=.$     +   6 6 h b C M b 6 6 5 < z b b z z z 3 b A b b ",
"z c g + S nXkX-.nXPXIXmXjXGXKXJXDXDXGXJXkXkXIXAXkX_ 6 8.jX6 z z F b n g z 6 : 6 b b c 2 g < 5 D g c ",
"z t z b bXcXlXKXIXnX*.u NXLXLXNXM lXIXPX>X  6.UXLXcXkXJXcX. b F F F m z b c < 6 $.4.4.F 6 6 g c m b ",
"u M 2 6.nXbXIXPXcXB + M FXKXxX@ # t 5.JXIXnXV 2.NXSXNXJXlXb 5 C F A m b n F m F A A +.A n < 1 C n c ",
"t & %.cXnXHXPXnX7 # o b DXKX-.7.ZX4.  %.KXIXkX  i SXHXHX}.x b b m A m m A A A F x 6 c b b 6 g b b c ",
": > 8.>XnXKXJXD 6 cX6.  ZXcX7.IXIXUXcXmXPXIXDXjXAXJXPXGXjXc < m C A z t c t M b x z m b 3 : 6 6 c 6 ",
"< %.%.=.mXGXGXD c lXlX2.5.4.+.AXkXbXVXFXnXcXUXUXUXDX2.B -.A 7 7 c m C m b b z z m m C S +.5 3 b c 7 ",
"6 -.-.<.nXHXKX#.S * S 7.$.-._ =.%.-.-.*.$.*.nXFXHXkX2 7 5.%.5 7 F A A S F S F m m C m F A g 6 z c 7 "
};
