/* XPM */
static char *_80ce58571824e8190048e16f3a3b877vxZ9rT78gEfXkNqk[] = {
/* columns rows colors chars-per-pixel */
"50 50 234 2 ",
"   c #010202",
".  c #0B0103",
"X  c #010A03",
"o  c #02020B",
"O  c #0B040C",
"+  c #01090B",
"@  c #0C090B",
"#  c #0D0A06",
"$  c #120202",
"%  c #1B0102",
"&  c #140902",
"*  c #13040C",
"=  c #190909",
"-  c #15150B",
";  c #020312",
":  c #0B0312",
">  c #030A13",
",  c #070D19",
"<  c #180916",
"1  c #071419",
"2  c #111118",
"3  c #250205",
"4  c #2D0503",
"5  c #230C03",
"6  c #2A0A02",
"7  c #260A09",
"8  c #290A09",
"9  c #3C0B02",
"0  c #380B08",
"q  c #3A130A",
"w  c #280516",
"e  c #321212",
"r  c #30251F",
"t  c #151828",
"y  c #0E0E2D",
"u  c #281D28",
"i  c #142526",
"p  c #142030",
"a  c #282426",
"s  c #342828",
"d  c #362C35",
"f  c #2C3235",
"g  c #4E0C0C",
"h  c #460807",
"j  c #5C0A01",
"k  c #570804",
"l  c #46150D",
"z  c #571207",
"x  c #4B0E12",
"c  c #570E16",
"v  c #471415",
"b  c #551114",
"n  c #591215",
"m  c #6E130D",
"M  c #691A05",
"N  c #630812",
"B  c #7B1A15",
"V  c #740F10",
"C  c #69220C",
"Z  c #521B21",
"A  c #4B2629",
"S  c #31403B",
"D  c #253042",
"F  c #493F48",
"G  c #3D4752",
"H  c #44474A",
"J  c #565456",
"K  c #504A55",
"L  c #65565D",
"P  c #57576B",
"I  c #635762",
"U  c #666973",
"Y  c #72787A",
"T  c #746B6D",
"R  c #881B0E",
"E  c #980918",
"W  c #951B15",
"Q  c #95130A",
"!  c #A8190D",
"~  c #A91916",
"^  c #BB1D1E",
"/  c #992109",
"(  c #9F2619",
")  c #842519",
"_  c #A62718",
"`  c #B82615",
"'  c #AA1029",
"]  c #8C2C20",
"[  c #BE2626",
"{  c #BE3425",
"}  c #AB362C",
"|  c #D81A17",
" . c #CF2A16",
".. c #E73415",
"X. c #FD351A",
"o. c #FE3C1E",
"O. c #F73918",
"+. c #EB2D15",
"@. c #C11022",
"#. c #EF182A",
"$. c #C72425",
"%. c #D52728",
"&. c #C63826",
"*. c #DC3625",
"=. c #E32922",
"-. c #FE2E27",
";. c #E73927",
":. c #FE3E24",
">. c #FE352C",
",. c #F43D2B",
"<. c #FD3D2A",
"1. c #F73524",
"2. c #FF3433",
"3. c #FE3B32",
"4. c #F93738",
"5. c #FF293B",
"6. c #EC4618",
"7. c #F4451E",
"8. c #FC431D",
"9. c #F44B1E",
"0. c #FB4B1D",
"q. c #F94415",
"w. c #ED541E",
"e. c #F9541C",
"r. c #FC440E",
"t. c #EB4829",
"y. c #F44424",
"u. c #FD4325",
"i. c #F44B25",
"p. c #FC4B24",
"a. c #F5432B",
"s. c #FE442B",
"d. c #F44D2B",
"f. c #FD4A2C",
"g. c #EF502A",
"h. c #FD5324",
"j. c #F5522D",
"k. c #FD532A",
"l. c #F75728",
"z. c #EC4433",
"x. c #FE4532",
"c. c #FD4B32",
"v. c #FE4A3B",
"b. c #F74839",
"n. c #FB5232",
"m. c #F65B32",
"M. c #FD5C33",
"N. c #FE543B",
"B. c #FD5A3A",
"V. c #F35338",
"C. c #EC543F",
"Z. c #86787A",
"A. c #F94843",
"S. c #FE5846",
"D. c #FE6647",
"F. c #FF6352",
"G. c #888179",
"H. c #7B7D89",
"J. c #776686",
"K. c #807A84",
"L. c #7A8186",
"P. c #7E9289",
"I. c #7C8FA0",
"U. c #8D8988",
"Y. c #999496",
"T. c #A99B9B",
"R. c #889BA2",
"E. c #9199B4",
"W. c #A59AAA",
"Q. c #A89DB5",
"!. c #BD95B8",
"~. c #98A8B9",
"^. c #9FA6AC",
"/. c #ACA8B5",
"(. c #B2A6B9",
"). c #ACB3B4",
"_. c #B8BABA",
"`. c #B3ACAA",
"'. c #DC9AA6",
"]. c #CAADA2",
"[. c #CAB5BC",
"{. c #C4B9BA",
"}. c #D0B8BD",
"|. c #CFAFAF",
" X c #A6C0BF",
".X c #CDC3BA",
"XX c #92A8C0",
"oX c #A8B4C8",
"OX c #BCBACC",
"+X c #BCB8C7",
"@X c #B9A9C3",
"#X c #C7BBC9",
"$X c #D4BBC6",
"%X c #D0B4D3",
"&X c #BEC6C7",
"*X c #CCC3C3",
"=X c #D1C6C6",
"-X c #CBC8D2",
";X c #D7C7D3",
":X c #D7D5D9",
">X c #C7D3D3",
",X c #E4D7DD",
"<X c #F2D5D3",
"1X c #FDEFDF",
"2X c #F9F1DA",
"3X c #DDDBE2",
"4X c #D7C6E6",
"5X c #E7DBE4",
"6X c #E3E7E4",
"7X c #EBE7ED",
"8X c #F9E5E8",
"9X c #EAF8EB",
"0X c #F4F5EE",
"qX c #FDFAEC",
"wX c #F2FAEE",
"eX c #FEEEFD",
"rX c #FAEBF3",
"tX c #EDFBF5",
"yX c #EEF9FA",
"uX c #F5F5F4",
"iX c #FDF4F5",
"pX c #F5FBF4",
"aX c #FBFAF5",
"sX c #F5F4FA",
"dX c #FDF5FB",
"fX c #F5FDFD",
"gX c gray99",
"hX c #FDFDFD",
"jX c #FEFCFD",
"kX c #FFFCFD",
"lX c #FFFDFF",
"zX c #FEFFFE",
"xX c #FDFCFB",
"cX c #EFE9F3",
/* pixels */
"xXxXjXjXjXjXjXjXgXaXxXuXgXjXuXzXiXxXiXiXrXrXdXeXcXsXsXsXsXdXdXiXpXwXaXxXgXjXxXxXgXgXgXjXjXjXjXjXjXjX",
"xXxXjXjXjXjXjXjXxXzXzXjXjXgXuXiXwXpXuXjXjXjXgXpXxXjXjXjXjXjXzXjXcXjXdXiXjXsXjXzXgXgXgXxXjXjXjXjXjXjX",
"xXxXjXjXjXjXjXjXjXuXjXaXpXxXiXdXzXfXsX7X:XOXoXoXXX~.E.Q.(.#X3XcXjXjXsXxXxXxXuXxXgXgXxXxXjXjXgXjXxXxX",
"xXxXjXjXjXjXjXjXfXjXxXgXjXiXjXyX_.H.G p t 2 o       o o o ; t D T #XzXgXpX0XxXxXxXjXjXxXjXgXgXgXxXxX",
"xXxXjXjXjXjXjXjXxXpXxXrXxXfX~.G < o         o ; .             o .   H ^.dXxXcXdXjXjXzXzXzXzXgXgXxXxX",
"xXxXjXjXjXjXjXjXxX9XuXjX:XH o o         $ 6 9 g z z z g 0 %       o o o d #XjXzXjXjXzXzXzXzXgXgXxXxX",
"xXxXjXjXjXjXjXjXpXxXjXR.p o < . & l ) { t.c.M.m.F.S.v.v.v.b.&./ v 3   ; o   U.aXjXjXjXzXzXgXgXgXjXjX",
"xXxXjXjXjXjXjXjXdXfXR., ; o $ v ..c.D.D.D.D.D.S.m.M.m.m.m.B.B.B.f.&.C . o ; o H.jXjXjXzXzXzXgXgXjXjX",
"jXgXjXjXaXxXgXuXaXE.y @ + =  .n.S.N.N.n.k.f.f.f.j.p.u.p.k.l.h.p.N.g.m.} w o &   L.xXfXpXxXjXjXgXxXxX",
"jXjXjXxXgXgXgXzX Xt +   j 1.v.k.i.p.p.u.u.u.u.u.:.u.u.u.u.d.j.j.0.u.n.B.b.Z o X   W.jX0XxXsXdXgXxXxX",
"gXjXjXjXgXfXzX:Xf + X k <.k.j.b.i.i.d.d.p.s.s.:.o.i.i.u.:.f.f.f.k.d.B.u.k.A.A     2 ;XxXxXdXjXfXjXjX",
"xXjXxXgXgXfXfXU   o 0 <.t.v.j.A.x.x.x.s.s.s.:.o.:.i.i.s.s.s.u.:.x.c.i.j.d.p.z.e @ o K jX9XxXjXpXjXjX",
"xXgXgXuXgXzX&X, . o | q.v.f.u.d.i.i.f.f.s.s.u.u.:.:.u.u.u.7.7.8.6.g.8.l.k.8.V.&.$ + : _.fXxXdXxXxXxX",
"xXaXxXgXjXzXU o o M X.l.f.p.h.p.p.p.9.9.9.7.u.s.u.u.u.u.u.u.p.p.h.8.M.o.r.f.z.i.C   o K zXxXfXxXxXxX",
"xXxXjXgXjX-Xt o O ..p.p.e.:.s.,.4.,.a.f.p.u.:.s.i.f.p.i.u.s.<.;.2.t.x.N.f.8.s.f.[ -   : +XdXfXxXxXxX",
"aXxXxXuXjXY.  o k s.h.g.e.*.' j 8 g W *.<.o.8.i.u.u.p.9.u.3.=.Q h 0 z _ b.s.O.x.4.5 + o K.xXtXxXxXxX",
"jXxXfXdXdXJ   o W h.w.p. .w X o   , o 9  .s.8.,.0.x.f.w.<.' &   . .   ; n 1.<.O.:.R o   F dXzXgXgXgX",
"xXjXjXgX5Xa   .  .h.i.f.j O     - ; o . 4 =.,.s.8.c.i.u.$.$ #     1 o   . m O.O.1.( o   s 7XgXgXgXgX",
"xXxXfXxX;X@   $ ;.q.p.` O X # Y ,X^.2 ;   V :.:.p.s.l.3.h +   a ).6XE.1     &.X.-.&.    < :XdXgXxXxX",
"jXuXuXjX#Xo + % t.p.O.M ;   Z.xXrXaX:Xr . 6 1.s.g.u.d.{   : a <XrX8XjX).@ o m X.-.;.@   * >XxXxXxXxX",
"xXiXaXjX(.o   7 C.d.0.0   # ;X8X].,XqXZ.  5 %.p.i.i.p._ . : G.<X'.!.iX8XG o h <.>.,.&   * &XjXaXxXxX",
"gXaXaXjXW.o   0 c.h.q.h   > $X2X].5XyXJ O # $.O.f.y.f.*.$ o T 1X<X%X8XqXf   q <.3.y.=   * _.jXaXxXxX",
"xXaX0XxXW.o . l f.0.p.Q   > I aXeXdXoX@ * 4 1.f.0.c.u.X.9 o   `.gXeXdXL.  . B X.4.d.6   * {.zXaXgXgX",
"gXxXaXjX/.o . l m.p.0...7   ; P E.J.= . X ! >.u.0.t.f.9.W o ; < U I.P o + 3 | :.4.h.q   $ }.zXiXgXgX",
"xXaXdXgXQ.    g x.i.e.u._ $   O   o +   m 1.u.6.f.u.f.u.O.j X ;     O o $ / <.,.:.d.q   @ [.jXpXxXxX",
"xXaXdXxXQ.    b d.d.p.p.o.! q o .   4 Q +.f.s.2.f.f.p.7.n.-.E     .   9 ^ ,.7.o.u.d.q   @ [.jXpXxXxX",
"xXaXdXxX(.    b h.f.s.i.h.p.*.] B ~ ;.s.u.u.a.V.u.d.f.o.9.p.>.%.! ) ( =.:.f.s.s.u.d.0   @ [.jXaXxXxX",
"xXaXdXxX@X    b k.u.u.i.f.p.f.u.p.x.c.z.V.c.f.7.i.f.s.p.8.i.f.x.u.a.x.p.9.g.c.s.u.d.0   @ [.xXaXxXxX",
"xXaXdXxX@X    n v.y.0.0.s.<.s.:.u.y.j.c.x.s.s.f.p.u.u.p.u.p.g.O.u.3.x.i.u.s.d.0.u.d.0   O [.xXaXxXxX",
"xXaXdXxX#X    b c.a.f.i.d.s.x.f.c.s.s.s.x.c.a.d.u.u.i.:.s.a.p.s.u.O.s.s.<.<.f.i.u.d.4   O $XxXaXxXxX",
"xXuXdXxX#Xo   n w.:.v.x.<.u.u.y.c.s.s.:.s.c.f.u.f.p.s.:.x.>.<.d.k.6.6.f.a.f.c.<.u.d.4   O $XjXuXxXxX",
"xXuXdXxX#Xo   n x.y.f.y.p.:.<.x.x.u.p.h.d.s.s.c.<.s.s.;.c.s.s.u.4.x.u.:.s.8.q.p.u.j.4   O $XjXuXgXgX",
"xXaXiXxXOXo o x i.i.s.s.s.s.s.s.a.a.s.f.s.s.u.:.u.u.u.s.s.s.s.s.u.s.s.:.:.u.u.u.u.f.8   * =XzXaXxXxX",
"gXaXiXxXOXo o x f.p.u.u.u.:.s.s.s.s.s.s.s.s.s.s.s.u.u.s.s.s.<.<.u.s.u.:.:.u.u.u.u.c.8   * =XjXxXxXxX",
"gXaXiXxXOX    l d.f.u.u.u.u.u.u.s.s.s.u.:.:.s.s.s.s.s.s.s.s.<.<.u.u.:.:.:.u.u.u.u.d.7   * =XjXaXxXxX",
"gXaXiXxX+X    l d.f.f.u.u.s.u.u.s.s.s.s.s.s.:.:.s.u.:.s.s.s.s.s.u.u.u.s.s.s.s.u.u.d.7   * =XjXaXxXxX",
"gXaXiXxX+X    l a.f.f.f.f.f.s.u.s.s.s.s.s.s.s.<.<.<.<.s.s.s.s.s.s.s.s.s.s.s.f.f.u.a.7   * =XjXxXxXxX",
"gXaXiXxX+X    x c.c.f.f.f.f.s.s.s.f.s.s.s.s.s.s.s.s.s.s.s.s.s.s.s.s.s.s.s.s.u.p.u.a.7   * *XjXdXxXxX",
"gXaXiXxX+Xo . x c.c.f.c.c.c.f.s.c.c.c.s.s.s.s.s.s.s.s.s.s.c.f.f.c.s.s.s.s.u.i.u.:.,.7   $ *XjXxXxXxX",
"gXaXiXxX+X  . x c.c.f.c.c.c.c.c.N.N.N.c.c.c.c.s.s.x.x.s.c.c.c.c.c.c.c.c.c.f.p.u.o.,.3   . {.zXxXxXxX",
"aXpXiXzX#Xo X N A.b.c.:.x.*.W B / &.A.S.V.c.c.s.u.p.f.c.c.c.v.3. .! R _ ;.1.f.7.X.#.6   $ _.jXxXxXxX",
"aXpXiXfX#Xo   N h.j.N.%.V % X .   $ k $.v.c.y.s.a.f.j.j.x.2.[ j > o o   % V %.4.,.5.9 X $ {.xXiXxXxX",
"xXaXaXfX#XO   c >.%.W 4   o o   > o   . k $.A.z.<.x.>.2.$.z                 % V ^ #.k   . `.yXfXxXxX",
"xX0X0XzX:Xo   x ' 9   o : o H T.U.s o O     g E | #.@.N .   o   1 Z.T.J > o     $ k 3   $ |.jXdXxXxX",
"xXxXaXfX3X< u v =     + H ).zXfXxX5XU.a       X & & . $ o   2 I 4XsXjXjX-XJ X     . * .   $XfXfXxXxX",
"aXxXxXpX5Xu d s @ 2 J {.xXxXxXiXaXjXzX6XY.d     o       a Y >XzXxXxXqXaXxXxX;XL :     * X :XxXxXxXxX",
"jXuX0XxX5Xu u d H.>XfXxXxXaXxXiXwX9XgXjXjXsXT.A @   S P.6XxXdXgXtXgXjXjXpXaXzXfX;XY i . - ,XjXiXxXxX",
"gXxXxXaXdXW.#X9XxXxXaXiXjXfXzXgXxXxXjXaXpXxXjXuX|..XaXjXjXgXaXaXxXzXfXtXxXaXiXjXjXdX9X_.Y.iXgXtXxXxX",
"gXxXaXaXjXxXxXxXaXgXxXxXxXxXxXxXxXxXxXxXxXxXxXxXjXxXgXgXxXxXxXjXxXxXxXxXxXxXxXxXgXxXxXxXjXjXxXxXjXjX",
"gXxXaXaXxXdXaXaXaXgXxXxXxXxXxXxXxXxXxXxXxXxXxXxXxXaXgXxXxXxXxXjXjXxXxXxXxXxXxXxXxXxXxXgXxXxXxXxXjXjX"
};
