/* XPM */
static char *_1aaa63e1654458cd6d08cc33a33860bHYbxOZpBMZoJaAr6[] = {
/* columns rows colors chars-per-pixel */
"50 50 134 2 ",
"   c #141B25",
".  c #171E28",
"X  c #191E29",
"o  c #172029",
"O  c #1D232D",
"+  c #1F2630",
"@  c #21252F",
"#  c #212631",
"$  c #242B35",
"%  c #292D37",
"&  c #272E38",
"*  c #2A2F39",
"=  c #2C3437",
"-  c #273039",
";  c #2C323C",
":  c #30353F",
">  c #323A3D",
",  c #2F3640",
"<  c #2F3841",
"1  c #313641",
"2  c #343B44",
"3  c #383D47",
"4  c #373E48",
"5  c #393E49",
"6  c #374047",
"7  c #394044",
"8  c #374049",
"9  c #3C434C",
"0  c #3F484F",
"q  c #3F4650",
"w  c #3F4851",
"e  c #40454F",
"r  c #414751",
"t  c #444A54",
"y  c #484D56",
"u  c #474E58",
"i  c #494F59",
"p  c #475057",
"a  c #4A5157",
"s  c #475059",
"d  c #4C535C",
"f  c #50575F",
"g  c #52565F",
"h  c #50545E",
"j  c #4F5660",
"k  c #4E5760",
"l  c #4F5660",
"z  c #4F5861",
"x  c #525460",
"c  c #505761",
"v  c #525661",
"b  c #535762",
"n  c #515761",
"m  c #515860",
"M  c #515862",
"N  c #525963",
"B  c #545863",
"V  c #545B63",
"C  c #575A63",
"Z  c #525864",
"A  c #535965",
"S  c #535A64",
"D  c #555964",
"F  c #545B65",
"G  c #545A66",
"H  c #555B67",
"J  c #575B66",
"K  c #555C64",
"L  c #555C66",
"P  c #565D67",
"I  c #575E66",
"U  c #545B64",
"Y  c #585B62",
"T  c #585A66",
"R  c #585C65",
"E  c #595C65",
"W  c #595E64",
"Q  c #585D67",
"!  c #565C68",
"~  c #575D69",
"^  c #575E68",
"/  c #575E68",
"(  c #585F69",
")  c #5A5E69",
"_  c #585E6A",
"`  c #595F6B",
"'  c #5A5F69",
"]  c #596068",
"[  c #5A6169",
"{  c #59606A",
"}  c #5A616B",
"|  c #5C636B",
" . c #5E626B",
".. c #5A606C",
"X. c #5B616D",
"o. c #5B626C",
"O. c #5C626E",
"+. c #5D646C",
"@. c #5E656D",
"#. c #5D646E",
"$. c #5C656E",
"%. c #5E656F",
"&. c #5C636C",
"*. c #5E6470",
"=. c #5F6670",
"-. c #5F6670",
";. c #60656B",
":. c #61636F",
">. c #60646D",
",. c #61666C",
"<. c #60676F",
"1. c #63666F",
"2. c #60666F",
"3. c #606771",
"4. c #616773",
"5. c #616671",
"6. c #626971",
"7. c #616872",
"8. c #626973",
"9. c #636975",
"0. c #636A74",
"q. c #646B75",
"w. c #656C74",
"e. c #656C76",
"r. c #666D77",
"t. c #676E76",
"y. c #636A74",
"u. c #696D76",
"i. c #666C78",
"p. c #666F78",
"a. c #686E7A",
"s. c #6B6F7A",
"d. c #6B727C",
"f. c #6B727B",
/* pixels */
"r r y m s , & 4 s t t y , $ + 1 d S F S S * 4 9 r t t d d i t & $ 9 9 w t 9 r t 9 r 4 4 O   # % 2 2 ",
"6.6.+.<.t.3.m u 9 r 9 2 q ^ S r u d F 3.4.q d S S F F ^ d t t 2 ; s d d d j F m d I V F r t c Y | ;.",
"6.t.t.<.6.+.j y 1 ; r [ a.O.( =.d i t u q 5 S ......( F t 2 1 , 4 w q r u s d d c I ( c r F :.1.:.<.",
"[ +.<.+.F r 5 9 ; m d.+.( ..i.....( d 9 * t 0.=...( ^ S r , * ; 2 9 q w r t u u d s d 9 ; d T Q Q Q ",
"| I I +.[ t 4 9 5 u ..3.( 9 t d y d s r , c 0.S ^ m m c u 2 * ; $ 2 w 9 9 q r q t r t 2 @ r c f Y Y ",
"f f f V ^ d 9 5 , r d ^ d 2 2 ; 1 , 1 2 * t m s d u u i u 5 ; ; w ; ; 8 9 9 5 q r r t 5 # 9 h d h h ",
"y d d d d s 9 4 1 d d d 9 1 5 2 4 , ; ; $ q c d s t t r r 5 ; 4 +.1 - 4 9 9 4 r 9 r t r $ 1 i u d h ",
"u y e r i r 1 * + r u d 4 ; 2 , , , 1 ; * r s 9 t 9 9 2 2 ; $ 4 4 ; ; # + ; ; & 1 2 2 5 . # e e y y ",
"$ 4 4 4 5 5 4 ; ; 1 9 5 , , ; & ; # $ $ . 9 9 9 ; ; $ 4 4 s m d 4 . 1 j s c d , d ^ c j d t y r 2 % ",
"9 V [ +.0.q.t.=.t.( d 1 + & 2 9 q s s m d r + t m 9 1 s d c m I r $ 9 [ [ 0.I 9 +.^ i s d s d r 4 : ",
"9 d I [ +.3.q.6.S i r 1 ; 9 d ^ S 6.....d 1 # 6.d 2 1 i s u i j q $ 1 d m +.r 2 [ t 1 2 4 4 9 ; 2 ; ",
"r m V I [ +.q.0.9 2 5 1 ; 2 2 2 9 r s d 1 # $ j 1 ; 4 r 9 r y u y ; , u d ..4 2 I 9 2 4 1 ; 2 ; : % ",
"9 u u s m ^ +.+.9 2 4 1 , 2 5 q t 9 y m 9 ; ; 9 ; ; 9 9 4 r r r y 2 ; 9 y I 4 4 d 4 2 5 1 1 4 2 ; $ ",
"1 9 e y j S ( I 9 1 1 ; * ; ; 2 5 9 9 y 9 $ $ 9 1 # 1 1 4 9 9 9 r 4 ; 2 9 i 2 , u 1 ; ; ; , ; ; ; $ ",
"; 9 9 9 y i d d 1 ; 1 2 , , ; 1 * 4 9 y y ; @ 9 1 O : 1 4 4 4 9 t e ; 2 q y 9 ; q 1 ; ; 1 1 ; ; ; $ ",
"; 4 4 9 q r d j 5 ; 1 ; $ $ $ ; 2 4 1 4 9 ; # $ $ o 2 ; ; : ; 1 1 1 + $ 4 9 5 O # O $ $ * ; + $ @ O ",
"$ , ; 1 1 y u i 5 ; $ ; 9 i r ; # ; 4 4 1 # ; 2 8 w 1 o ; < 2 1 4 8 1 2 4 1 2 ; O # 9 $ @ 1 : 9 ; ; ",
"d t 5 2 4 & * 9 & + # ; 4 y u 5   r i.9 1 d z j F d 2 $ 8 r t y s d s d d d j y 4 y S 1 2 ( F d m d ",
"[ ^ [ I I ; * 9 u t t t r y y 9 t 9 t 1 t F d I [ s - $ 2 t r y u s s d c S F y & r s & 2 a.q.O.I V ",
"..3.6.S y 2 9 c i d d j c I [ [ $.s ; - r t d d F s ; $ ; w 9 9 r t y s d c j 9 $ r t & : ( Q | +.+.",
"+.0.0.c ; ; r j d m S m m m S I m t ; ; q r u t s j 9 * $ 9 9 4 q r y s s m d 1 ; i u 1 : d d F I I ",
"^ [ 6.0.9 ; 4 r t s s d m F I ..j # $ ; 9 r 4 t r d t ; O ; 4 2 9 9 w t t d s $ ; t q , ; d i d d d ",
"d d V | s ; $ r 9 r q r i s s c r # ; ; , 4 9 r r i d 9 * $ 1 4 4 9 9 r r d i + 1 y r 2 % r e 9 t y ",
"s d m I +.; O 5 4 9 9 9 y u u j 9 O O 1 2 ; 9 2 9 9 s t 2 O * 4 2 4 9 9 9 u r . 2 r 9 9 $ 2 5 e e t ",
"4 e e r 9 ; $ # 1 , 2 1 9 1 4 9 $ O o $ & $ ; ; & 2 ; , & . $ $ ; < 2 2 5 q 4 O $ & ; * # $ ; 1 2 2 ",
"; 9 9 r y y s a s s t 9 9 4 ; O c S d c d y t r 9 ; ; d t 9 u I S z m z d s t 9 ; O ; F 3.<.h y % $ ",
"9 d a u s d I m V [ ^ [ +.+.d r +.0.S u u r 9 5 2 $ $ r 5 d [ +.[ d s s r 9 4 4 ; & u d.Q y 5 r 2 ; ",
"9 u y y a d f d V Q I ..d r , 2 I +.u 4 9 9 4 1 1 ; $ & ; d I m j 9 2 4 4 1 ; ; ; ; d ..5 2 : 1 ; % ",
"> 7 7 9 r e y a u d c ( y 1 & 2 t F i r t e 4 1 2 ; % $ 9 t i I y 9 2 2 2 2 1 ; * & i j 2 9 2 1 ; ; ",
"> 7 > 7 9 2 9 9 t d c c r ; # ; 9 i r 9 9 1 : : ; * % $ u 9 r d 5 4 4 2 ; ; , ; $ $ d u : ; ; 1 ; % ",
"= 2 > 2 6 4 9 e 9 9 y s r ; ; q c i 5 5 5 1 2 2 * ; * ; t 5 t r 4 1 2 1 ; ; ; ; ; # r 2 1 2 ; ; % $ ",
"$ 2 2 2 2 2 6 4 9 4 t d t # 1 ^ O.q * 1 5 2 1 * * % O 1 5 2 r 9 5 ; ; , , , ; ; $ # y ; ; : * % % $ ",
"@ ; : - ; 1 , 4 4 , ; 2 ; $ 1 9 9 ; ; & # $ & $ $ $ O $ ; 2 2 * ; $ ; % : $ # $ # . $ ; O * $ # % O ",
"s d d r 9 , # ; 2 2 4 9 9 2 9 q 9 $ $ ; 1 9 9 9 r y y u t r t 9 ; * r r i 3 * 9 t d d c d 2 # u V f ",
"t.+.I d y 4 ; r j m S S F I F S d 4 9 s j m m S I I ( +.( V F i 2 9 ) 3.3.t 3 ( ( ( c h b 1 ; y.6.<.",
"r 9 4 1 1 ; ; t c S I m ^ [ s q ; $ 9 s d d j F I m I [ d 9 5 ; * 5 i c i ; * c d 2 1 ; * # 5 b V s ",
"4 4 4 1 1 ; ; 9 d c ^ ^ 6.+.9 * $ $ 9 u y s d d d j I ( r ; * $ ; r t d e $ 1 i c 1 2 1 * ; d d d 9 ",
"2 4 2 ; ; ; $ 1 t y d j ..S ; # - $ 2 9 9 q 9 9 t s d F i 1 * ; % 5 5 t 2 $ : 9 i 3 ; * * * r d s 1 ",
"1 2 , $ ; ; $ 1 t r i i m s * ; $ O ; 4 9 9 9 9 r y q u i 1 # $ 2 1 9 e * * * 5 r 9 * * * 1 t c 9 ; ",
"; ; ; ; , ; O * 9 4 r y d 9 O ; $ O ; 9 4 2 2 4 2 r q u d 2 * 5 t ; e 4 @ * # 5 5 5 * ; $ 5 d u 1 ; ",
"; ; $ # O O # o $ 4 9 9 s , O O O   O : 4 ; 4 1 ; 4 : 2 e @ 2 t 9 5 % $ # @ . * 9 2 # $ # . t 9 $ % ",
", 9 r y t r t 9 r r 9 1 ; $ , 4 4 2 9 r r 9 9 ; % 9 $ @ 2 2 e r r 9 : : $ * 5 5 # 9 ; ; : * 2 : ; ; ",
"d q.d.d.f.q.6.=.[ c d r ; 9 c m I | 6.+.<.+.[ 9 t 6.t e | f.u.| T c i t 1 2 c 9 ; c F ( V F i t 2 ; ",
"q I m i s r 9 9 5 1 1 1 $ 9 r 9 0 p d s d m d $ ; d ; 9 V >.u e 9 5 9 2 ; * r : e i :.:.r 9 5 1 2 ; ",
"9 u 4 ; 1 1 ; ; ; ; & $ * r 9 9 9 9 r e y y y $ ; d ; 9 c V e e 3 : 5 : 2 1 : 1 d d O.i 2 * : ; ; % ",
"9 r , ; 1 1 ; ; ; ; ; # ; 9 4 r 9 9 9 9 r r y ; # y ; 9 u i 9 4 9 2 5 ; 2 : X 1 r c f : 1 : : 2 % % ",
"9 9 ; ; ; ; ; $ & $ ; + ; 4 1 9 9 2 6 6 9 9 r 2 O 9 ; 9 u t 4 2 5 2 1 ; 1 1 $ 5 i c 9 * ; ; * % % $ ",
"4 , & ; & $ ; $ ; O & O ; 4 4 4 6 4 4 2 2 2 9 1 # 4 $ 9 t 4 2 2 1 2 ; 1 * ; * 4 h 9 % 1 $ * ; @ $ @ ",
"% ; ; % $ $ $ $ $ $ + # ; 1 4 1 2 1 2 2 2 1 1 4 # # ; 9 5 1 2 1 ; 1 ; ; ; $ ; q 9 ; & * $ $ $ $ # @ ",
"@ # # # $ # # # $ # O O $ ; ; ; ; ; ; ; ; ; ; ; O O # 1 1 ; : ; ; ; * $ $ + $ 9 1 $ # $ # # $ # @ @ "
};
